<?xml version="1.0" encoding="utf-8"?>
<!-- Generator: Adobe Illustrator 27.7.0, SVG Export Plug-In . SVG Version: 6.00 Build 0)  -->
<svg version="1.1" xmlns="http://www.w3.org/2000/svg" xmlns:xlink="http://www.w3.org/1999/xlink" x="0px" y="0px"
     viewBox="0 0 20 20" style="enable-background:new 0 0 20 20;" xml:space="preserve">
<style type="text/css">
	.st12{fill:none;stroke:#414139;stroke-linecap:round;stroke-linejoin:round;stroke-miterlimit:22.9256;}
</style>
<g id="CART_02">
	<g>
		<path class="st12" d="M8.37,15.05c0.62,0,1.12,0.5,1.12,1.12c0,0.62-0.5,1.12-1.12,1.12c-0.62,0-1.12-0.5-1.12-1.12
			C7.25,15.55,7.75,15.05,8.37,15.05z"/>
        <circle class="st12" cx="15.1" cy="16.17" r="1.12"/>
        <path class="st12" d="M17.34,4.95H5.01l2.02,7.58c0.13,0.5,0.57,0.83,1.08,0.83h7.59c0.52,0,0.95-0.33,1.08-0.83l1.64-6.17
			c0.09-0.35,0.02-0.69-0.19-0.97C18.01,5.11,17.7,4.95,17.34,4.95z"/>
        <path class="st12" d="M1.64,2.71h1.91c0.52,0,0.95,0.33,1.08,0.83l0.38,1.41"/>
	</g>
</g>
</svg>
