<?xml version="1.0" encoding="UTF-8"?>
<svg width="29px" height="29px" viewBox="0 0 29 29" version="1.1" xmlns="http://www.w3.org/2000/svg" xmlns:xlink="http://www.w3.org/1999/xlink">
    <defs>
        <polygon id="path-1" points="5.58980686e-05 0.172449448 28.4686095 0.172449448 28.4686095 29 5.58980686e-05 29"></polygon>
    </defs>
    <g id="Mobile" stroke="none" stroke-width="1" fill="none" fill-rule="evenodd">
        <g id="Home-ReDesignQ4-Final-A" transform="translate(-83.000000, -3546.000000)">
            <g id="Content" transform="translate(-2.000000, 269.000000)">
                <g id="Olapic" transform="translate(2.000000, 3269.000000)">
                    <g id="Group-8" transform="translate(83.000000, 8.000000)">
                        <g id="Group-3">
                            <mask id="mask-2" fill="white">
                                <use xlink:href="#path-1"></use>
                            </mask>
                            <g id="Clip-2"></g>
                            <path d="M20.6109905,27.874869 L20.5108714,28.2739643 L20.5661095,28.9029881 C20.4031571,28.7131071 20.249181,28.5211548 20.1055619,28.3285119 L19.9267286,28.6343929 C20.2132762,28.6150595 20.5018952,28.617131 20.7870619,28.5784643 L20.9548476,28.3174643 L21.0963952,28.5315119 C23.9335619,28.1344881 26.4786571,26.19425 27.6593714,23.5952976 C27.9673238,22.9510833 28.1758476,22.2626786 28.3139429,21.5632262 C28.3636571,21.2103929 28.4382286,20.859631 28.441681,20.5019643 L28.467919,19.9689167 L28.4686095,19.4842024 L28.4686095,15.6209881 L28.4686095,11.7577738 L28.4686095,9.82582143 L28.4686095,8.85984524 C28.4444429,8.50425 28.4506571,8.14658333 28.3961095,7.79375 C28.0633,4.94967857 26.2197286,2.34520238 23.6470143,1.0919881 C22.3820619,0.451916667 20.9099667,0.140511905 19.535919,0.175035714 L15.6733952,0.175035714 L11.810181,0.175035714 L9.87891905,0.175035714 C9.23677619,0.175035714 8.6070619,0.163988095 7.86825238,0.216464286 C6.44725238,0.351107143 5.0663,0.854464286 3.8745381,1.63539286 C2.69382381,2.43358333 1.70782381,3.51832143 1.02839524,4.77291667 C0.364157143,6.03441667 0.00718095238,7.46163095 0.00234761905,8.88263095 L0.00234761905,12.7465357 L0.17427619,12.8045357 L0.00234761905,12.9737024 L0.00234761905,13.9099881 L0.570609524,14.102631 L0.00234761905,14.6626071 L0.00234761905,17.8463929 C0.0230619048,18.9159405 -0.0542714286,19.9240357 0.0928,21.1406548 C0.40282381,23.4765357 1.72370476,25.6467024 3.63908571,27.0103929 C4.59263333,27.6967262 5.68841905,28.1869643 6.83737143,28.4369167 C7.12391905,28.5032024 7.41737143,28.5335833 7.70737143,28.5812262 C7.99875238,28.6164405 8.29289524,28.6185119 8.58565714,28.6364643 L10.1882524,28.6412976 L16.5551333,28.6412976 L16.595181,28.5218452 L16.7139429,28.6412976 L17.7151333,28.6412976 L17.8918952,28.5674167 L17.9395381,28.8960833 L17.9257286,29.0003452 L17.9257286,27.3770357 L17.6205381,26.8432976 L17.6895857,26.5905833 L16.3334905,26.5905833 L16.0904429,27.5165119 L15.4524429,26.7804643 L15.4828238,26.5905833 L15.3557762,26.5905833 L15.2501333,26.9068214 L14.9332048,26.5905833 L9.53713333,26.5905833 C8.57599048,26.601631 7.90139524,26.5802262 7.13910952,26.3979405 C6.40099048,26.2211786 5.68634762,25.9263452 5.0545619,25.5003214 C3.78270476,24.6593214 2.81258571,23.3764167 2.35272857,21.9264167 C2.25537143,21.5590833 2.15870476,21.1910595 2.11658571,20.8119881 C2.07722857,20.624869 2.08275238,20.4329167 2.06963333,20.2423452 L2.05375238,19.9564881 L2.05375238,19.6209167 L2.05375238,16.9232262 L2.05375238,11.5264643 L2.05513333,8.83429762 C2.06065714,8.06925 2.20289524,7.31317857 2.46044286,6.59922619 C2.97070476,5.16717857 4.00227619,3.92086905 5.32039524,3.15582143 C5.97565714,2.76915476 6.69513333,2.49572619 7.44084762,2.34796429 L8.00496667,2.26165476 L8.57599048,2.23265476 C8.98268095,2.21884524 9.46394286,2.2285119 9.90377619,2.22575 L10.0998714,1.64713095 L10.6708952,2.22575 L10.8849429,2.22575 L10.9388,2.06763095 L11.0948476,2.22575 L16.6455857,2.22575 L19.4213,2.22575 L19.767919,2.22575 L20.0634429,2.24163095 C20.2588476,2.25475 20.4563238,2.24991667 20.6482762,2.29065476 C21.0383952,2.33553571 21.4174667,2.43289286 21.7930857,2.53991667 C23.2865857,3.0115119 24.5922762,4.04446429 25.4160143,5.3750119 C25.8303,6.03925 26.1244429,6.77529762 26.2853238,7.54172619 L26.3737048,8.12241667 C26.3964905,8.31644048 26.394419,8.51322619 26.408919,8.70863095 C26.4275619,9.11394048 26.4144429,9.61867857 26.4185857,10.0681786 L26.4185857,15.6189167 L26.4185857,18.394631 L26.4185857,19.7817976 C26.4020143,20.2230119 26.4054667,20.5820595 26.3288238,20.9783929 C26.092681,22.5216071 25.2938,23.9826548 24.088919,24.992131 C22.8957762,26.0147262 21.3470381,26.5822976 19.7755143,26.5905833 C19.8638952,26.8274167 19.9626333,27.065631 20.0710381,27.3031548 L20.4314667,27.3659881 L20.4653,27.7498929 L20.6109905,27.874869 Z" id="Fill-1" fill="#666459" mask="url(#mask-2)"></path>
                        </g>
                        <path d="M14.5,9.14183722 C11.5456925,9.14183722 9.14183722,11.5449786 9.14183722,14.5 C9.14183722,17.4550214 11.5456925,19.8581628 14.5,19.8581628 C17.4543075,19.8581628 19.8581628,17.4550214 19.8581628,14.5 C19.8581628,11.5449786 17.4543075,9.14183722 14.5,9.14183722 M14.5,22 C10.3648263,22 7,18.6351737 7,14.5 C7,10.3648263 10.3648263,7 14.5,7 C18.6351737,7 22,10.3648263 22,14.5 C22,18.6351737 18.6351737,22 14.5,22" id="Fill-4" fill="#666459"></path>
                        <path d="M22,6.84714747 C21.9160689,6.84714747 21.8479197,6.91603875 21.8479197,7 C21.8479197,7.1679225 22.1520803,7.1679225 22.1520803,7 C22.1520803,6.91603875 22.0839311,6.84714747 22,6.84714747 M22,9 C20.8974175,9 20,8.10297811 20,7 C20,5.89702189 20.8974175,5 22,5 C23.1025825,5 24,5.89702189 24,7 C24,8.10297811 23.1025825,9 22,9" id="Fill-6" fill="#666459"></path>
                    </g>
                </g>
            </g>
        </g>
    </g>
</svg>