<svg xmlns="http://www.w3.org/2000/svg" xmlns:xlink="http://www.w3.org/1999/xlink" width="43" height="43" viewBox="0 0 43 43">
  <defs>
    <clipPath id="clip-Login_button_facebook_click">
      <rect width="43" height="43"/>
    </clipPath>
  </defs>
  <g id="Login_button_facebook_click" data-name="Login/button/facebook_click" clip-path="url(#clip-Login_button_facebook_click)">
    <g id="UI-Elements---iPhone" transform="translate(-0.5 -0.5)">
      <g id="UI-Elements---Controls" transform="translate(-1140 -4270)">
        <g id="Sign-in-with-Apple-_Logo-only_" data-name="Sign-in-with-Apple-(Logo-only)" transform="translate(1140 4270)">
          <g id="Button-Background">
            <g id="Appearance" fill="rgba(0,0,0,0.5)" fill-rule="evenodd">
              <path d="M 33.74446105957031 43 L 10.255539894104 43 C 6.946599960327148 43 5.742790222167969 42.67995834350586 4.564219951629639 42.04964828491211 C 3.434149980545044 41.44528961181641 2.554719924926758 40.56584930419922 1.950350046157837 39.435791015625 C 1.320039987564087 38.25720977783203 1 37.05339813232422 1 33.74446105957031 L 1 10.255539894104 C 1 6.946599960327148 1.320039987564087 5.742790222167969 1.950350046157837 4.564219951629639 C 2.554719924926758 3.434149980545044 3.434149980545044 2.554719924926758 4.564219951629639 1.950350046157837 C 5.742790222167969 1.320039987564087 6.946599960327148 1 10.255539894104 1 L 33.74446105957031 1 C 37.05339813232422 1 38.25720977783203 1.320039987564087 39.435791015625 1.950350046157837 C 40.56584930419922 2.554719924926758 41.44528961181641 3.434149980545044 42.04964828491211 4.564219951629639 C 42.67995834350586 5.742790222167969 43 6.946599960327148 43 10.255539894104 L 43 33.74446105957031 C 43 37.05339813232422 42.67995834350586 38.25720977783203 42.04964828491211 39.435791015625 C 41.44527816772461 40.56584930419922 40.56584930419922 41.44527816772461 39.435791015625 42.04964828491211 C 38.25720977783203 42.67995834350586 37.05339813232422 43 33.74446105957031 43 Z" stroke="none"/>
              <path d="M 10.25553894042969 1.5 C 7.052528381347656 1.5 5.905300140380859 1.800140380859375 4.800010681152344 2.391250610351562 C 3.758621215820312 2.948200225830078 2.948200225830078 3.758621215820312 2.391250610351562 4.800010681152344 C 1.800140380859375 5.905300140380859 1.5 7.052528381347656 1.5 10.25553894042969 L 1.5 33.74446105957031 C 1.5 36.94747161865234 1.800140380859375 38.09469985961914 2.391250610351562 39.19998168945312 C 2.948200225830078 40.24137115478516 3.758621215820312 41.05179977416992 4.800010681152344 41.60874938964844 C 5.905300140380859 42.19985961914062 7.052528381347656 42.5 10.25553894042969 42.5 L 33.74446105957031 42.5 C 36.94747161865234 42.5 38.09469985961914 42.19985961914062 39.19998168945312 41.60874938964844 C 40.24137878417969 41.05179977416992 41.05179977416992 40.24137878417969 41.60874938964844 39.19998168945312 C 42.19985961914062 38.09469985961914 42.5 36.94747161865234 42.5 33.74446105957031 L 42.5 10.25553894042969 C 42.5 7.052528381347656 42.19985961914062 5.905300140380859 41.60874938964844 4.800010681152344 C 41.05179977416992 3.758621215820312 40.24137115478516 2.948200225830078 39.19998168945312 2.391250610351562 C 38.09469985961914 1.800140380859375 36.94747161865234 1.5 33.74446105957031 1.5 L 10.25553894042969 1.5 M 10.25553894042969 0.5 L 33.74446105957031 0.5 C 37.16893005371094 0.5 38.41775894165039 0.8388900756835938 39.67158126831055 1.509441375732422 C 40.88685989379883 2.159381866455078 41.84062194824219 3.113140106201172 42.49055862426758 4.328411102294922 C 43.16110992431641 5.582241058349609 43.5 6.831058502197266 43.5 10.25553894042969 L 43.5 33.74446105957031 C 43.5 37.16893005371094 43.16110992431641 38.41775894165039 42.49055862426758 39.67158126831055 C 41.84062194824219 40.88685989379883 40.88685989379883 41.84062194824219 39.67158126831055 42.49055862426758 C 38.41775894165039 43.16110992431641 37.16893005371094 43.5 33.74446105957031 43.5 L 10.25553894042969 43.5 C 6.831058502197266 43.5 5.582241058349609 43.16110992431641 4.328411102294922 42.49055862426758 C 3.113140106201172 41.84062194824219 2.159381866455078 40.88685989379883 1.509441375732422 39.67158126831055 C 0.8388900756835938 38.41775894165039 0.5 37.16893005371094 0.5 33.74446105957031 L 0.5 10.25553894042969 C 0.5 6.831058502197266 0.8388900756835938 5.582241058349609 1.509441375732422 4.328411102294922 C 2.159381866455078 3.113140106201172 3.113140106201172 2.159381866455078 4.328411102294922 1.509441375732422 C 5.582241058349609 0.8388900756835938 6.831058502197266 0.5 10.25553894042969 0.5 Z" stroke="none" fill="#bfbfbf"/>
            </g>
          </g>
          <path id="iconmonstr-facebook-6" d="M16.8,0H.981A.981.981,0,0,0,0,.981V16.8a.981.981,0,0,0,.981.981H9.5V10.893H7.179V8.21H9.5V6.232a3.233,3.233,0,0,1,3.451-3.547,19,19,0,0,1,2.07.106v2.4H13.6c-1.114,0-1.33.53-1.33,1.306V8.211h2.657l-.346,2.683H12.267v6.884H16.8a.981.981,0,0,0,.98-.981V.981A.981.981,0,0,0,16.8,0Z" transform="translate(13.5 12.5)" fill="#fff"/>
        </g>
      </g>
    </g>
  </g>
</svg>
