<svg xmlns="http://www.w3.org/2000/svg" xmlns:xlink="http://www.w3.org/1999/xlink" width="43" height="43" viewBox="0 0 43 43">
  <defs>
    <clipPath id="clip-Login_button_apple">
      <rect width="43" height="43"/>
    </clipPath>
  </defs>
  <g id="Login_button_apple" data-name="Login/button/apple" clip-path="url(#clip-Login_button_apple)">
    <g id="UI-Elements---iPhone" transform="translate(-0.5 -0.5)">
      <g id="UI-Elements---Controls" transform="translate(-1140 -4270)">
        <g id="Sign-in-with-Apple-_Logo-only_" data-name="Sign-in-with-Apple-(Logo-only)" transform="translate(1140 4270)">
          <g id="Button-Background">
            <g id="Appearance" fill="#fff" fill-rule="evenodd">
              <path d="M 33.74446105957031 43 L 10.255539894104 43 C 6.946599960327148 43 5.742790222167969 42.67995834350586 4.564219951629639 42.04964828491211 C 3.434149980545044 41.44528961181641 2.554719924926758 40.56584930419922 1.950350046157837 39.435791015625 C 1.320039987564087 38.25720977783203 1 37.05339813232422 1 33.74446105957031 L 1 10.255539894104 C 1 6.946599960327148 1.320039987564087 5.742790222167969 1.950350046157837 4.564219951629639 C 2.554719924926758 3.434149980545044 3.434149980545044 2.554719924926758 4.564219951629639 1.950350046157837 C 5.742790222167969 1.320039987564087 6.946599960327148 1 10.255539894104 1 L 33.74446105957031 1 C 37.05339813232422 1 38.25720977783203 1.320039987564087 39.435791015625 1.950350046157837 C 40.56584930419922 2.554719924926758 41.44528961181641 3.434149980545044 42.04964828491211 4.564219951629639 C 42.67995834350586 5.742790222167969 43 6.946599960327148 43 10.255539894104 L 43 33.74446105957031 C 43 37.05339813232422 42.67995834350586 38.25720977783203 42.04964828491211 39.435791015625 C 41.44527816772461 40.56584930419922 40.56584930419922 41.44527816772461 39.435791015625 42.04964828491211 C 38.25720977783203 42.67995834350586 37.05339813232422 43 33.74446105957031 43 Z" stroke="none"/>
              <path d="M 10.25553894042969 1.5 C 7.052528381347656 1.5 5.905300140380859 1.800140380859375 4.800010681152344 2.391250610351562 C 3.758621215820312 2.948200225830078 2.948200225830078 3.758621215820312 2.391250610351562 4.800010681152344 C 1.800140380859375 5.905300140380859 1.5 7.052528381347656 1.5 10.25553894042969 L 1.5 33.74446105957031 C 1.5 36.94747161865234 1.800140380859375 38.09469985961914 2.391250610351562 39.19998168945312 C 2.948200225830078 40.24137115478516 3.758621215820312 41.05179977416992 4.800010681152344 41.60874938964844 C 5.905300140380859 42.19985961914062 7.052528381347656 42.5 10.25553894042969 42.5 L 33.74446105957031 42.5 C 36.94747161865234 42.5 38.09469985961914 42.19985961914062 39.19998168945312 41.60874938964844 C 40.24137878417969 41.05179977416992 41.05179977416992 40.24137878417969 41.60874938964844 39.19998168945312 C 42.19985961914062 38.09469985961914 42.5 36.94747161865234 42.5 33.74446105957031 L 42.5 10.25553894042969 C 42.5 7.052528381347656 42.19985961914062 5.905300140380859 41.60874938964844 4.800010681152344 C 41.05179977416992 3.758621215820312 40.24137115478516 2.948200225830078 39.19998168945312 2.391250610351562 C 38.09469985961914 1.800140380859375 36.94747161865234 1.5 33.74446105957031 1.5 L 10.25553894042969 1.5 M 10.25553894042969 0.5 L 33.74446105957031 0.5 C 37.16893005371094 0.5 38.41775894165039 0.8388900756835938 39.67158126831055 1.509441375732422 C 40.88685989379883 2.159381866455078 41.84062194824219 3.113140106201172 42.49055862426758 4.328411102294922 C 43.16110992431641 5.582241058349609 43.5 6.831058502197266 43.5 10.25553894042969 L 43.5 33.74446105957031 C 43.5 37.16893005371094 43.16110992431641 38.41775894165039 42.49055862426758 39.67158126831055 C 41.84062194824219 40.88685989379883 40.88685989379883 41.84062194824219 39.67158126831055 42.49055862426758 C 38.41775894165039 43.16110992431641 37.16893005371094 43.5 33.74446105957031 43.5 L 10.25553894042969 43.5 C 6.831058502197266 43.5 5.582241058349609 43.16110992431641 4.328411102294922 42.49055862426758 C 3.113140106201172 41.84062194824219 2.159381866455078 40.88685989379883 1.509441375732422 39.67158126831055 C 0.8388900756835938 38.41775894165039 0.5 37.16893005371094 0.5 33.74446105957031 L 0.5 10.25553894042969 C 0.5 6.831058502197266 0.8388900756835938 5.582241058349609 1.509441375732422 4.328411102294922 C 2.159381866455078 3.113140106201172 3.113140106201172 2.159381866455078 4.328411102294922 1.509441375732422 C 5.582241058349609 0.8388900756835938 6.831058502197266 0.5 10.25553894042969 0.5 Z" stroke="none" fill="#bfbfbf"/>
            </g>
          </g>
          <path id="_" data-name="" d="M22.223,14.385a3.583,3.583,0,0,0,2.5-1.353,4.4,4.4,0,0,0,.973-2.657A1.844,1.844,0,0,0,25.656,10a4.06,4.06,0,0,0-2.707,1.449,4.166,4.166,0,0,0-1.008,2.573,1.707,1.707,0,0,0,.035.338A1.308,1.308,0,0,0,22.223,14.385ZM19.293,29c1.137,0,1.641-.785,3.059-.785,1.441,0,1.758.761,3.023.761,1.242,0,2.074-1.184,2.859-2.343A10.8,10.8,0,0,0,29.5,23.939,4.159,4.159,0,0,1,27.039,20.1a4.323,4.323,0,0,1,1.98-3.624,4.285,4.285,0,0,0-3.645-1.884c-1.395,0-2.531.87-3.246.87-.773,0-1.793-.821-3-.821-2.3,0-4.629,1.957-4.629,5.653a11.934,11.934,0,0,0,1.934,6.293C17.348,27.913,18.145,29,19.293,29Z" transform="translate(0 1)"/>
        </g>
      </g>
    </g>
  </g>
</svg>
