<?xml version="1.0" encoding="utf-8"?>
<!-- Generator: Adobe Illustrator 27.7.0, SVG Export Plug-In . SVG Version: 6.00 Build 0)  -->
<svg version="1.1" xmlns="http://www.w3.org/2000/svg" xmlns:xlink="http://www.w3.org/1999/xlink" x="0px" y="0px"
     viewBox="0 0 20 20" style="enable-background:new 0 0 20 20;" xml:space="preserve">
<style type="text/css">
	.st7{fill:none;stroke:#414139;stroke-linecap:round;stroke-linejoin:round;stroke-miterlimit:10;}
</style>
<g id="pedido">
	<g>
		<path class="st7" d="M17,5.96v10.32c0,0.81-0.66,1.47-1.47,1.47H4.47C3.66,17.75,3,17.09,3,16.28V5.96h3.69"/>
        <path class="st7" d="M13.32,5.96h4.42c0.41,0,0.74-0.33,0.74-0.74V3.75c0-0.81-0.66-1.47-1.47-1.47h-3.92H6.92H3
			c-0.81,0-1.47,0.66-1.47,1.47v1.47c0,0.41,0.33,0.74,0.74,0.74h4.42"/>
        <polygon class="st7" points="12.58,11.12 10,9.64 7.42,11.12 7.42,2.27 12.58,2.27 		"/>
	</g>
</g>
</svg>
