<?xml version="1.0" encoding="UTF-8"?>
<svg width="30px" height="30px" viewBox="0 0 30 30" version="1.1" xmlns="http://www.w3.org/2000/svg" xmlns:xlink="http://www.w3.org/1999/xlink">
    <!-- Generator: Sketch 48.1 (47250) - http://www.bohemiancoding.com/sketch -->
    <title>neu</title>
    <desc>Created with Sketch.</desc>
    <defs>
        <path d="M15.5433857,17.7755825 L15.5433857,20.1558 L15.1906714,20.2260857 L15.5433857,20.2505143 L15.5433857,20.3675143 L15.4366714,20.3889429 L15.5433857,20.3962286 L15.5433857,27.183655 L17.4761143,26.4715286 L17.6561143,26.7809571 L17.5541143,26.4428143 L17.6509714,26.4072429 L17.7054,26.5006714 L17.6745429,26.3986714 L23.8232571,24.1328143 L23.9471143,24.2416714 L23.8318286,24.1302429 L23.8558286,24.1212429 L24.0242571,24.2553857 C23.9004,24.1688143 23.7829714,24.0805286 23.6724,23.9892429 L24.0216857,24.2785286 L24.2256857,24.4623857 L24.3122571,24.5193857 L24.5256857,24.6959571 L24.6246857,24.7131 C24.7819714,24.8155286 24.9456857,24.9158143 25.1158286,25.0135286 L20.0398286,26.8833857 L19.9896857,26.7972429 L20.0184,26.8915286 L19.9961143,26.8996714 L19.8126857,26.5846714 L19.9164,26.9288143 L15.4481143,28.5753857 L15.3474,28.4031 C15.3658286,28.4661 15.3868286,28.5278143 15.4005429,28.5929571 L15.3744,28.6023857 L15.3418286,28.4892429 C15.2751786,28.3938481 15.2157459,28.2958925 15.1637021,28.1953758 L15.129898,28.1930507 C15.1569557,28.3495261 15.1797421,28.5075307 15.1982571,28.6675286 L14.9171143,28.7708143 L14.9274,28.5998143 C14.9055429,28.4901 14.8884,28.3791 14.8759714,28.2655286 L14.8767801,28.2073714 L14.7809457,28.2073714 L14.7802286,28.2140571 L14.8286571,28.2877714 C14.8342286,28.4523429 14.8466571,28.6199143 14.8655143,28.7900571 L10.0723714,26.8499143 L10.0933714,26.7526286 L10.0509429,26.8413429 L10.0290857,26.8323429 L10.1053714,26.4762 L9.95108571,26.8006286 L5.39065714,24.9556286 C5.4078,24.8913429 5.42751429,24.8292 5.45022857,24.7679143 L5.30451429,24.9200571 L5.27837143,24.9097714 L5.3628,24.8167714 C5.42322857,24.6770571 5.49737143,24.5429143 5.5848,24.4134857 C5.43137143,24.5583429 5.27151429,24.7002 5.10522857,24.8399143 L4.8288,24.7276286 L4.99251429,24.6252 C5.07994286,24.5412 5.17165714,24.4589143 5.26808571,24.3787714 L6.27351429,23.6990571 L6.20837143,23.7427714 L6.00651429,23.8812 L6.05751429,23.8520571 L6.08794286,23.8644857 L6.03094286,23.9210571 L6.09265714,23.8666286 L8.4588,24.8240571 L8.3838,25.1737714 L8.53594286,24.8549143 L8.63108571,24.8934857 L8.60837143,24.9993429 L8.65422857,24.9029143 L14.2705286,27.1761601 L14.2705286,22.7276571 L14.3686714,22.7079429 L14.2705286,22.7010857 L14.2705286,22.6745143 L14.6292429,22.6029429 L14.2705286,22.5780857 L14.2705286,18.4717927 L13.8651429,18.8718 L13.7892857,18.8083714 L13.8561429,18.8803714 L13.8467143,18.8898 L13.5702857,18.6583714 L13.8141429,18.9223714 L11.7167143,20.9910857 L11.6194286,20.8115143 L11.6807143,21.0270857 L11.6695714,21.0378 L11.6314286,20.9100857 C11.562,20.7648 11.4981429,20.6135143 11.4398571,20.4570857 L11.5967143,21.1098 L11.4801429,21.2246571 L11.4514286,21.0330857 L11.3601429,20.6572286 L11.1548571,19.4452286 L11.1677143,19.5228 L11.2101429,19.7679429 L11.2028571,19.7105143 L11.2157143,19.6980857 L11.238,19.7795143 L11.2178571,19.6959429 L12.0904286,18.8345143 L12.3621429,19.0616571 L12.1225714,18.8028 L12.1628571,18.7629429 L12.2451429,18.8315143 L12.1727143,18.7530857 L14.1974554,16.7554938 L12.1488857,15.8189571 L12.2397429,15.4731 L12.0743143,15.7851 L11.9817429,15.7426714 L12.0091714,15.6381 L11.9590286,15.7323857 L6.12969091,13.0676858 L5.26148571,13.9690286 L4.98634286,13.7466 L5.2332,13.9986 L5.19805714,14.0346 L5.11491429,13.9673143 L5.18948571,14.0436 L3.34705714,15.9563143 L3.11005714,15.9936 L3.34405714,15.9597429 L3.33505714,15.9687429 L3.03034286,16.0201714 L3.64962857,15.9117429 L3.00291429,16.0176 L2.60691429,16.0788857 L2.46505714,16.1058857 L2.06991429,16.1710286 L1.96748571,16.2048857 L1.19091429,16.3600286 L3.57548571,13.8846 L3.6522,13.9463143 L3.58362857,13.8760286 L3.59134286,13.8678857 L3.87162857,14.0946 L3.62048571,13.8378857 L4.90267013,12.5067915 L4.82802857,12.4726714 L4.93860771,12.469483 L4.95092436,12.4566966 L4.78088571,12.4512429 L4.64931429,12.3912429 L5.0005245,12.4052044 L5.01736144,12.3877252 L4.06825714,12.3676714 L4.22897143,12.3723857 L4.75011429,12.3801 L4.6644,12.3655286 L4.83282857,12.2965286 L5.02611429,12.2973857 L4.85982857,12.2858143 L5.29526434,12.1081241 L5.29105714,12.1038857 L5.34162857,12.0507429 L5.36886831,12.0780882 L8.4054,10.8389571 L8.59397143,11.1428143 L8.47997143,10.8089571 L8.57254286,10.7708143 L8.62911429,10.8629571 L8.59482857,10.7613857 L14.8232571,8.22124286 L14.8601143,8.36224286 L14.8704,8.20152857 L15.0019714,8.14838571 L14.9788286,8.35581429 C14.9565429,8.23152857 14.9274,8.10981429 14.8926857,7.99067143 L14.9256857,8.40081429 L14.9316857,8.66052857 L14.9531143,8.74152857 L14.9736857,8.99224286 L15.0002571,9.03552857 C15.0118286,9.19324286 15.0169714,9.35395714 15.0161143,9.51681429 L10.9138286,11.1899571 L10.8615429,11.1055286 L10.8936857,11.1989571 L10.8722571,11.2071 L10.6802571,10.8981 L10.7964,11.2383857 L7.83368571,12.4469571 L7.40897143,12.4083857 L7.83368571,12.4469571 L7.57568571,12.4251 C7.2384,12.3981 6.88825714,12.3762429 6.52568571,12.3595286 L7.83368571,12.4469571 L7.4454,12.4362429 L6.60368571,12.4212429 L5.72572873,12.4026924 L5.76828486,12.4436649 L5.84545714,12.4448143 L6.03317143,12.4392429 L6.61517143,12.4418143 L6.71417143,12.4319571 L7.8336,12.4469571 L10.6497429,13.7343857 L10.6244571,13.8303857 L10.6703143,13.7438143 L10.6917429,13.7536714 L10.5987429,14.1059571 L10.7676,13.7883857 L15.031927,15.7377801 C15.0319275,15.7377391 15.031928,15.7376981 15.0319286,15.7376571 L19.2087857,13.9638 L19.2632143,14.0473714 L19.2297857,13.9548 L19.2516429,13.9458 L19.4496429,14.2518 L19.3287857,13.9123714 L22.3635,12.6240857 L22.7950714,12.6536571 L22.3635,12.6240857 L22.6257857,12.6403714 C22.9686429,12.6605143 23.3247857,12.6746571 23.6933571,12.6832286 L22.3635,12.6240857 L22.7582143,12.6266571 L23.6145,12.6232286 L24.2486895,12.6229124 L24.2845386,12.5883558 L24.1944429,12.5928 L23.6025857,12.6030857 L23.5018714,12.6146571 L22.3635857,12.6240857 L19.5088714,11.4163714 L19.5311571,11.3195143 L19.4874429,11.4078 L19.4660143,11.3983714 L19.5478714,11.0435143 L19.3884429,11.3658 L15.0333,9.52422857 C15.0457286,9.45822857 15.0641571,9.39522857 15.0885857,9.33437143 L15.0161571,9.51694286 L15.0560143,9.40637143 C15.1053,9.26151429 15.1408714,9.11065714 15.1631571,8.95508571 C15.1078714,9.1398 15.0585857,9.32665714 15.0161571,9.51694286 L15.0238714,9.35022857 C15.0273,9.23151429 15.0260143,9.11065714 15.0200143,8.98808571 L15.0290143,7.89865714 L15.0255857,7.96765714 L15.0324429,8.1918 L15.0633,8.15494286 L15.2351571,8.2278 L15.2415857,8.31051429 L15.2625857,8.23894286 L17.9347286,9.36908571 L17.8537286,9.71751429 L18.0105857,9.40122857 L18.1048714,9.44108571 L18.0804429,9.54651429 L18.1280143,9.45051429 L24.6696639,12.217115 L24.8521286,12.0412286 L24.8049857,12.0862286 L24.6716723,12.2179643 L24.6754347,12.2195556 L24.6995571,12.2040857 L24.7372714,12.2430857 L24.7356036,12.2450023 L25.4201571,12.5345143 L25.0875857,12.5508 L25.4681571,12.5546571 L25.6023,12.6112286 L25.1085857,12.6022286 L25.9687286,12.5632286 L25.0601672,12.5785053 L25.1025317,12.6224868 L26.1936429,12.6219429 L26.0303571,12.6210857 L25.4997857,12.6249429 L25.5872143,12.6378 L25.4153571,12.7106571 L25.2186429,12.7136571 L25.3879286,12.7222286 L25.2535711,12.779291 L25.6977,13.2403714 L25.4649857,13.5065143 L25.7259857,13.2699429 L25.7611286,13.3063714 L25.6904143,13.3865143 L25.7697,13.3149429 L28.5609857,16.2129429 L28.3312714,16.1829429 L28.5789857,16.2313714 L28.6287,16.2832286 L28.3107,16.2180857 L28.9017,16.2969429 L28.2545571,16.1906571 L27.8487,16.1195143 L27.7167,16.1028 L27.3215571,16.0380857 L27.2478429,16.0333714 L26.4944143,15.9022286 L25.5502714,14.9216571 L25.6149857,14.8475143 L25.5421286,14.9139429 L25.5344143,14.9053714 L25.7714143,14.6340857 L25.5057,14.8758 L23.9990411,13.3120978 L21.7763571,14.2560857 L21.5817857,13.9556571 L21.7005,14.2882286 L21.6057857,14.3285143 L21.5470714,14.2376571 L21.5830714,14.3383714 L16.192534,16.6274441 L17.3883,17.8076143 L17.3257286,17.8834714 L17.3968714,17.8161857 L17.4063,17.8251857 L17.1787286,18.1050429 L17.4393,17.8577571 L19.0481571,19.4451857 L18.9778714,19.6513286 L19.0481571,19.4451857 L19.0074429,19.5703286 C18.9560143,19.7340429 18.9105857,19.9024714 18.8703,20.0769 L19.0481571,19.4451857 L19.0134429,19.6307571 L18.9483,20.0327571 L18.7425857,21.2447571 L18.7571571,21.1676143 L18.7953,20.9190429 L18.7725857,20.9614714 L18.6997286,20.8894714 L18.7117286,20.7973286 L18.6881571,20.8783286 L17.3750143,19.5819 L17.5983,19.3071857 L17.3424429,19.5501857 L17.3021571,19.5103286 L17.3698714,19.4276143 L17.2923,19.5013286 L15.5433857,17.7755825 Z M25.1927983,17.5725492 L25.2004876,17.5722941 L25.182,17.5459714 L25.1927983,17.5725492 Z M25.2597677,17.6566971 L25.2582629,17.7336767 L25.3148571,17.8729714 L25.2549854,17.9013467 L25.1958857,20.9247 L25.0973143,20.9345571 L25.1954571,20.9405571 L25.1950286,20.9568429 L24.8354571,20.9928429 L25.1941714,21.0147 L25.1247429,24.5594143 C25.0596,24.5491286 24.9944571,24.5367 24.9293143,24.5225571 L25.1234571,24.6232714 L25.1230286,24.6425571 L25.0064571,24.5847 C24.8547429,24.5452714 24.7034571,24.4968429 24.5521714,24.4377 C24.7416,24.5439857 24.9310286,24.6549857 25.1204571,24.7707 L25.1166,24.9755571 L24.9623143,24.8602714 C24.8526,24.7998429 24.7433143,24.7359857 24.6340286,24.6691286 L23.6406,23.9632714 L23.7044571,24.0087 L23.9054571,24.1505571 L23.8604571,24.1145571 L23.8608857,24.0918429 L23.9341714,24.1312714 L23.8608857,24.0884143 L23.8930286,22.4495571 L24.2461714,22.4139857 L23.8938857,22.3929857 L23.8956,22.3218429 L24.0023143,22.3111286 L23.8956,22.3047 L23.9700952,18.5124072 L18.9861429,20.8841143 L18.9784286,20.7272571 L18.9398571,20.9059714 L18.8117143,20.9672571 L18.87,20.7354 C18.8678571,20.8734 18.8717143,21.0088286 18.8815714,21.1408286 L18.9261429,20.6852571 L18.9681429,20.3964 L18.9634286,20.3064 L18.9908571,20.0282571 L18.9745714,19.9802571 C18.993,19.8045429 19.0174286,19.6262571 19.0482857,19.4449714 L22.8604286,17.6312571 L22.9178571,17.7122571 L22.8805714,17.6214 L22.9015714,17.6115429 L23.1107143,17.9094 L22.9752857,17.5764 L26.4942857,15.9024 L26.7565714,15.9945429 L26.4942857,15.9024 L26.6545714,15.9564 C26.8654286,16.0245429 27.0891429,16.0866857 27.3248571,16.1436857 C27.054,16.0601143 26.7771429,15.9795429 26.4942857,15.9024 L26.7514286,15.9534 L27.3158571,16.0519714 L29.0095714,16.3614 L28.9028571,16.3404 L28.5522857,16.2812571 L28.6002857,16.3095429 L28.4357143,16.3875429 L28.3045714,16.3686857 L28.4095714,16.4004 L25.3872857,17.8382571 L25.2597677,17.6566971 Z M15.0779408,16.3542172 L15.0713571,16.2660857 L15.0447857,16.2228 C15.0342819,16.0669231 15.0299566,15.9085748 15.0318097,15.7473513 L15.0233143,15.9055286 C15.0190286,16.0251 15.0194571,16.1472429 15.0241714,16.2711 L15.0237899,16.2955654 L15.0779408,16.3542172 Z M14.9124854,16.1380998 L14.9262277,16.1536262 C14.9646645,16.0170408 14.9998891,15.878971 15.0319016,15.7397526 C15.0319046,15.7395181 15.0319076,15.7392837 15.0319106,15.7390492 L14.9916,15.8481 C14.9599275,15.942284 14.9334781,16.0389895 14.9124854,16.1380998 Z M14.9091322,16.1541773 C14.9078258,16.1605398 14.9065419,16.1669122 14.9052804,16.1732943 L14.9172243,16.1853868 C14.9190436,16.1790156 14.9208559,16.1726412 14.9226611,16.1662634 L14.9091322,16.1541773 Z M14.9005037,16.1980806 C14.9001042,16.200208 14.8997072,16.2023364 14.8993127,16.204466 L14.9091173,16.2135957 C14.9095065,16.21225 14.9098955,16.2109041 14.9102841,16.209558 L14.9005037,16.1980806 Z M4.77792857,18.0671558 L1.77107143,16.6365429 C1.83535714,16.5945429 1.90221429,16.5538286 1.97207143,16.5144 L1.68964286,16.5975429 L1.66521429,16.5855429 L1.83107143,16.5345429 C2.00121429,16.4466857 2.18335714,16.3648286 2.37835714,16.2885429 C2.09207143,16.3648286 1.79935714,16.4376857 1.50064286,16.5079714 L1.23878571,16.3832571 L1.50964286,16.3382571 L2.01492857,16.2114 L3.70864286,15.9024 L3.59935714,15.9221143 L3.25778571,15.9851143 L3.34007143,15.9735429 L3.36878571,15.9872571 L3.26078571,16.0172571 L3.3735,15.9894 L5.2665,16.8898286 L5.16921429,17.2339714 L5.33935714,16.9245429 L5.42978571,16.9674 L5.40021429,17.0715429 L5.45164286,16.9781143 L11.1657857,19.6965429 L11.1773571,19.8628286 L11.1735,19.7008286 L11.1962143,19.7111143 L11.2210714,19.9271143 C11.1940714,19.7775429 11.1735,19.6305429 11.1589286,19.4865429 L11.2035,19.9421143 L11.2197857,20.2189714 L11.2407857,20.3209714 L11.2682143,20.5995429 L11.3247857,20.6818286 C11.3629286,20.8669714 11.4079286,21.0546857 11.4589286,21.2458286 L6.70007143,18.9812571 L6.72707143,18.8861143 L6.6795,18.9722571 L6.65892857,18.9619714 L6.75792857,18.6118286 L6.58478571,18.9268286 L6.05078571,18.6727602 L6.05078571,19.6578429 L5.6985,19.6972714 L6.05078571,19.7105571 L6.05078571,19.7757 L5.94407143,19.7877 L6.05078571,19.7915571 L6.05078571,23.8239857 L5.90592857,23.9092714 L6.05078571,23.8299857 L6.05078571,23.8462714 L5.8665,23.9615571 C5.99035714,23.8767 6.11378571,23.7965571 6.23764286,23.7207 L5.8455,23.9598429 L5.6025,24.0995571 L5.51935714,24.1587 L5.27978571,24.3048429 L5.22964286,24.3721286 C5.07878571,24.4792714 4.92835714,24.5907 4.77792857,24.7072714 L4.77792857,21.0939857 L4.87607143,21.0832714 L4.77792857,21.0794143 L4.77792857,21.0644143 L5.13707143,21.0241286 L4.77792857,21.0108429 L4.77792857,18.0671558 Z M5.62623793,12.4415493 L5.58470898,12.3997128 L5.55989506,12.3991885 L5.61079809,12.4413194 L5.62623793,12.4415493 Z M4.97208918,12.4347244 L4.28888571,12.4319571 L4.9919164,12.4141409 L4.97208918,12.4347244 Z M15.0319117,15.7389636 C15.0319122,15.7389211 15.0319128,15.7388785 15.0319133,15.738836 C15.0050724,15.7977028 14.9807796,15.8582649 14.9594571,15.9201 L15.0319117,15.7389636 Z M19.2458571,6.86922857 L19.1738571,6.8268 L18.9762857,6.69137143 L18.9248571,6.67722857 L18.5442857,6.43337143 L19.7005714,4.74951429 L19.7854286,4.79922857 L19.7057143,4.74137143 L19.7112857,4.73365714 L20.0224286,4.91451429 L19.7314286,4.70408571 L20.8551429,3.06694286 L21.0252857,3.16594286 L20.8662857,3.05108571 L20.8697143,3.04637143 L20.9657143,3.11408571 L21.3591429,3.34851429 L20.8915714,3.0138 L20.9267143,2.9628 L21.054,3.05408571 L21.3355714,3.23022857 L22.1661429,3.7998 L22.113,3.76251429 L21.9437143,3.64894286 L21.9771429,3.68194286 L21.951,3.71965714 L21.8867143,3.68237143 L21.9467143,3.72565714 L21.2837143,4.69165714 L20.9785714,4.51337143 L21.264,4.71994286 L21.24,4.75551429 L21.1474286,4.70151429 L21.234,4.76451429 L19.6251429,7.1088 L19.503,7.03037143 L19.6178571,7.11908571 L19.5972857,7.14865714 L19.4502857,7.03808571 L19.7661429,7.23351429 L19.4425714,7.01151429 L19.2458571,6.86922857 Z M15.2642143,5.71701429 L15.1815,5.72858571 L14.9427857,5.7453 L14.8939286,5.7663 L14.4443571,5.81215714 L14.3025,3.7743 L14.3997857,3.76058571 L14.3016429,3.76444286 L14.3012143,3.75501429 L14.6573571,3.70401429 L14.2986429,3.71987143 L14.1606429,1.73901429 L14.3556429,1.7103 L14.1593571,1.7193 L14.1589286,1.7133 L14.2763571,1.70687143 L14.7306429,1.64558571 L14.1563571,1.6743 L14.1520714,1.61215714 L14.3085,1.60444286 L14.6385,1.56715714 L15.6430714,1.4973 L15.5783571,1.50158571 L15.3752143,1.51787143 L15.4215,1.52301429 L15.4249286,1.56844286 L15.3516429,1.57915714 L15.4253571,1.57615714 L15.5067857,2.74444286 L15.1570714,2.79501429 L15.5089286,2.77915714 L15.5119286,2.82201429 L15.4065,2.83701429 L15.5127857,2.83272857 L15.7103571,5.66901429 L15.5663571,5.68315714 L15.7112143,5.68144286 L15.7133571,5.71744286 L15.5295,5.72258571 L15.8980714,5.67887143 L15.5067857,5.7063 L15.2642143,5.71701429 Z M10.8675857,6.63737143 L10.7968714,6.68237143 L10.5860143,6.79594286 L10.5504429,6.83537143 L10.1595857,7.06208571 L9.19015714,5.26422857 L9.2733,5.21151429 L9.18587143,5.25565714 L9.18072857,5.24708571 L9.48458571,5.0538 L9.16401429,5.21622857 L8.22201429,3.46808571 L8.38787143,3.36222857 L8.21258571,3.45094286 L8.21001429,3.44622857 L8.31415714,3.39137143 L8.70244286,3.14837143 L8.19115714,3.41151429 L8.16201429,3.35665714 L8.3013,3.28508571 L8.5863,3.11494286 L9.47301429,2.63708571 L9.41558571,2.66751429 L9.2373,2.76608571 L9.28144286,2.75151429 L9.3033,2.7918 L9.24072857,2.83208571 L9.30672857,2.79865714 L9.86258571,3.82937143 L9.56472857,4.01965714 L9.8793,3.86022857 L9.89944286,3.89794286 L9.80944286,3.95537143 L9.90458571,3.90737143 L11.2537286,6.4098 L11.1285857,6.48265714 L11.2601571,6.42094286 L11.2768714,6.45265714 L11.1110143,6.53322857 L11.4294429,6.34165714 L11.0840143,6.52765714 L10.8675857,6.63737143 Z" id="path-1"></path>
    </defs>
    <g id="MBL" stroke="none" stroke-width="1" fill="none" fill-rule="evenodd">
        <g id="neu">
            <mask id="mask-2" fill="white">
                <use xlink:href="#path-1"></use>
            </mask>
            <use id="icon" fill="#666459" xlink:href="#path-1"></use>
        </g>
    </g>
</svg>