<?xml version="1.0" encoding="UTF-8"?>
<svg xmlns="http://www.w3.org/2000/svg" width="346.667" height="346.667" viewBox="0 0 260.000000 260.000000"><defs><style>.cls-1 {fill: #fff;}.cls-2 {fill: #389187;}</style></defs><rect class="cls-2" width="346.667" height="346.667"/><path class="cls-1" d="m80.82,199.39h13.84l31.31-91.16,35.78,91.16h13.84l27.9-100.11c5.96-21.73,11.93-24.71,20.45-25.99v-4.69h-42.39v4.47c15.55,0,17.89,9.16,13.42,26.62l-21.94,82.22-36-93.72c-3.41-8.95-1.28-14.91,8.52-14.91v-4.69h-38.98v4.69c7.67,0,10.44,8.09,11.29,10.86l3.83,11.08-29.18,86.9-30.03-93.93c-2.77-8.95-1.28-14.91,8.52-14.91v-4.69h-38.98v4.69c7.67,0,10.44,8.09,11.29,10.86l37.49,115.23Z"/></svg>