<?xml version="1.0" encoding="utf-8"?>
<!-- Generator: Adobe Illustrator 27.7.0, SVG Export Plug-In . SVG Version: 6.00 Build 0)  -->
<svg version="1.1" xmlns="http://www.w3.org/2000/svg" xmlns:xlink="http://www.w3.org/1999/xlink" x="0px" y="0px"
     viewBox="0 0 20 20" style="enable-background:new 0 0 20 20;" xml:space="preserve">
<style type="text/css">
	.st11{fill:none;stroke:#414139;stroke-width:1.2;stroke-linecap:round;stroke-linejoin:round;}
	.st3{fill:#414139}
</style>
<g id="WALLET">
	<path class="st11" d="M1.68,4.24v11.53c0,0.38,0.15,0.75,0.42,1.02c0.27,0.27,0.64,0.42,1.02,0.42h14.41
		c0.19,0,0.37-0.08,0.51-0.21c0.14-0.14,0.21-0.32,0.21-0.51V6.4c0-0.19-0.08-0.37-0.21-0.51c-0.14-0.14-0.32-0.21-0.51-0.21H3.12
		c-0.38,0-0.75-0.15-1.02-0.42C1.84,4.99,1.68,4.62,1.68,4.24z M1.68,4.24c0-0.38,0.15-0.75,0.42-1.02C2.38,2.95,2.74,2.8,3.12,2.8
		h12.25"/>
        <path class="st3" d="M14.29,12.52c0.6,0,1.08-0.48,1.08-1.08c0-0.6-0.48-1.08-1.08-1.08c-0.6,0-1.08,0.48-1.08,1.08
		C13.21,12.04,13.69,12.52,14.29,12.52z"/>
</g>
</svg>
