<?xml version="1.0" encoding="UTF-8"?>
<svg id="LOGO_161613" data-name="LOGO 161613" xmlns="http://www.w3.org/2000/svg" viewBox="0 0 764.85 110.99">
    <defs>
        <style>
            .cls-1 {
            fill: #161613;
            }
        </style>
    </defs>
    <path class="cls-1" d="m431.82,109.37h9.57l21.65-63.04,24.75,63.04h9.57l19.3-69.23c4.12-15.02,8.25-17.09,14.14-17.97v-3.24h-29.31v3.09c10.75,0,12.37,6.33,9.28,18.41l-15.17,56.85-24.89-64.81c-2.36-6.19-.88-10.31,5.89-10.31v-3.24h-26.95v3.24c5.3,0,7.22,5.6,7.81,7.51l2.65,7.66-20.18,60.1-20.77-64.96c-1.91-6.19-.88-10.31,5.89-10.31v-3.24h-26.95v3.24c5.3,0,7.22,5.6,7.81,7.51l25.92,79.69Z"/>
    <path class="cls-1" d="m541.12,109.37h26.51v-3.09c-5.89-1.03-7.07-3.24-7.07-9.13V28.94c0-4.86,1.47-7.36,5.6-7.36v-2.65h-23.57v2.65c4.86,0,5.74,2.65,5.74,7.36v68.49c0,5.6-2.21,7.81-7.22,8.84v3.09Z"/>
    <path class="cls-1" d="m334.76,109.37h29.16v-3.09c-7.51-.74-8.69-2.95-8.69-13.55V24.82h16.94c7.22,0,10.46,2.95,11.93,9.28h2.06v-15.17h-74.68v15.17h1.91c1.33-6.78,4.57-9.28,12.23-9.28h17.53v68.2c0,10.46-1.03,12.52-8.4,13.26v3.09Z"/>
    <path class="cls-1" d="m730.53,110.99c14.73,0,24.89-3.98,34.32-8.25v-39.47h-24.01v3.68c11.19.88,13.55,5.3,13.55,18.85v12.23c-5.45,4.71-13.26,8.25-23.86,8.25-24.89,0-38.44-18.71-38.44-42.86s13.26-42.57,37.41-42.57c15.47,0,23.57,7.66,25.63,19.88h3.68v-17.09c-8.54-3.98-17.97-7.07-29.16-7.07-29.61,0-50.67,21.5-50.67,49.05,0,25.92,18.85,45.37,51.55,45.37Z"/>
    <path class="cls-1" d="m581.18,109.37h20.47v-3.54c-5.89-1.33-7.95-2.8-7.95-12.23v-60.83l59.06,76.59h10.16V32.19c0-7.66,1.33-9.13,5.45-10.61v-2.65h-17.23v2.65c5.01.59,6.33,3.39,6.33,12.23v60.1l-58.48-74.97h-19.3v2.65c6.78,1.77,8.54,5.89,8.54,13.7v60.68c0,6.48-1.62,8.98-7.07,10.31v3.09Z"/>
    <path class="cls-1" d="m273.19,110.99c20.33,0,31.96-10.61,31.96-26.51,0-34.61-50.82-25.04-50.82-48.46,0-7.81,7.07-15.02,20.18-15.02,8.69,0,19.3,2.8,21.36,11.64h1.62v-10.61c-7.51-3.54-14.88-5.45-22.98-5.45-18.56,0-29.9,9.72-29.9,21.95,0,32.26,50.23,19.59,50.23,49.93,0,10.02-6.04,17.68-21.36,17.68-16.94,0-25.78-7.07-27.25-16.5h-2.36v13.55c5.74,3.68,15.32,7.81,29.31,7.81Z"/>
    <path class="cls-1" d="m161.54,109.37h66.58l2.8-14.88h-2.65c-1.33,4.86-5.45,8.4-15.76,8.4l-31.67.15v-38.59h27.84c6.33,0,8.4,1.03,8.69,4.86h2.5v-15.47h-2.5c-.44,3.54-2.36,4.86-8.69,4.86h-27.84V24.97h29.75c10.9,0,13.4,2.06,14.29,8.54h2.36v-14.58h-65.69v2.65c5.89,1.33,7.07,2.65,7.07,11.78v56.41c0,13.11-1.03,14.73-7.07,16.2v3.39Z"/>
    <path class="cls-1" d="m49.9,109.37h9.57l21.65-63.04,24.75,63.04h9.57l19.3-69.23c4.12-15.02,8.25-17.09,14.14-17.97v-3.24h-29.31v3.09c10.75,0,12.37,6.33,9.28,18.41l-15.17,56.85-24.89-64.81c-2.36-6.19-.88-10.31,5.89-10.31v-3.24h-26.95v3.24c5.3,0,7.22,5.6,7.81,7.51l2.65,7.66-20.18,60.1-20.77-64.96c-1.91-6.19-.88-10.31,5.89-10.31v-3.24h-26.95v3.24c5.3,0,7.22,5.6,7.81,7.51l25.92,79.69Z"/>
</svg>