<svg id="Camada_1" data-name="Camada 1" xmlns="http://www.w3.org/2000/svg" viewBox="0 0 1864 217.75"><defs><style>.cls-1{fill:#58b9aa;}.cls-2{fill:none;}.cls-3{fill:#5f5e5a;}</style></defs><title>logo now</title><path class="cls-1" d="M1422.58,86.54c-14.75,25.89-50.87,111.38-50.87,133.06,0,8.13,24.38,23.78,37.93,26.19-11.14-8.43,41.84-139.38,53-161.06-.9-4.81-21.37-21.07-32.82-21.07-14.44,0-37,22-46.35,32.52-19,21.07-39.74,50.57-52.08,75.55,15.35-41.84,36.73-88.2,41.84-88.8.3-2.71-19.26-14.45-30.1-14.45-2.11,0-4.21.6-5.12,2.11-22.57,31.31-57.5,130.35-57.5,143.89,0,8.13,20.78,23.48,34.32,25.89a18.26,18.26,0,0,1-.6-4.52c0-26.79,71.35-122.82,93-142.09,6.62-5.71,11.74-9.33,15.35-7.22" transform="translate(-23 -28.03)"/><path class="cls-1" d="M1864.69,28c-46.11,8.86-110.69,123.61-134.21,176.81a33.13,33.13,0,0,0-2.39,4.82c-1.21-16.55,10.76-107.46,14.67-112.88-.3-7.53-32.51-19.57-37-13-12,14.45-53.88,84.59-72.24,120.11,1.8-25.28,29.19-114.09,33.71-119.2.9-8.44-36.12-19.27-39.43-12.95-10.54,24.08-32.21,110.78-33.42,137a27.83,27.83,0,0,0,.61,6.62c3,9,26.48,25,38.83,25,2.41-3.61,38.83-83.69,65.32-123.12-5.72,28.59-9.63,69.84-9.63,87.6a37.94,37.94,0,0,0,.6,7.82c1.41,8.17,25.88,25.11,39.64,27.28a6.88,6.88,0,0,0,2.94.7l-.1,0c.6-1.69,1.44-3.68,2.12-5.49,6.73-14.89,27.45-56.75,31.7-65.31a586.69,586.69,0,0,1,52.3-76.66c27-33.19,53.61-48.73,68-47.05,3-4.2-13.09-18.07-22-18.07" transform="translate(-23 -28.03)"/><path class="cls-1" d="M1491.14,223.81c-8.43,0-10.83-8.43-10.83-15.95,0-44.86,50-131.26,77.36-131.26,5.72,0,6.32,11.15,6.32,14.45-1.21,34-47.56,132.76-72.85,132.76m68.64-159.24c-4.52-1.51-9-3.61-15.36-3.61-43.64,0-102.65,78-102.65,133.65,0,28.6,27.39,47.26,53.59,47.26,45.45,0,102.35-79.17,102.35-140.58,0-11.13-16.86-36.72-36.12-36.72Z" transform="translate(-23 -28.03)"/><rect class="cls-2" width="1864" height="217.75"/><rect class="cls-2" y="37.09" width="1246.05" height="171.44"/><path class="cls-3" d="M375.48,200.93c-1,0-1.45.42-1.86,2.08a28.73,28.73,0,0,1-3.92,8.65,29.16,29.16,0,0,1-10.5,8.24c-3.51,1.44-17.11,2.67-28.65,2.67-1,0-1.85,0-11.95-.61-9.27-.42-10.91-3.3-11.13-19.79l-.82-49.66a1.58,1.58,0,0,1,.62-1.43h1.44s10.51-.63,14-.63c12.16.21,20,.42,20,.42,8,.21,11.75,3.5,13,11.33.62,4.74,1.24,5.77,2.68,5.77,1,0,1.45-.62,1.45-1.66v-3.08l-1.24-14.64V137.26l.62-7c0-1.44-.62-2.27-1.64-2.27-1.45,0-2.06,1-2.69,4.34-1.24,7.2-3.91,8.65-15.46,8.65H308.29c-1.64,0-1.85-.21-1.85-2.27V85.32l.21-6c0-1.86.82-2.27,3.91-2.48l8-.41h25.77c15,0,20.18,2.89,23.48,13.61L369.09,94c.61,1.66,1.24,2.27,2.27,2.27,1.23,0,2.06-1,2.06-3.31a21.43,21.43,0,0,0-.42-3.08,121.44,121.44,0,0,1-.83-12.78,31.45,31.45,0,0,1,.21-4.54V70.9c0-1.86-1-3.51-2.68-3.51-.41,0-.81,0-48.63,1-1,0-54.7-.62-63.55-.42h-3.09c-4.33,0-8-.2-10.93-.4,0,0-1.84-.22-3.09-.22-2.67,0-3.5,1-3.5,2.07s1,2.05,2.68,2.26l7.2,1.24A6.83,6.83,0,0,1,253,80.17c0,3.51-2.06,9.27-6.59,19.58L200,204.64c-.42,1.05-1,1.45-1.46,1.45-.82,0-1.23-.61-1.84-1.85L153.85,97.69l-4.94-14.84a18.2,18.2,0,0,1-.41-3.69c0-4.76,1.65-6.4,6.8-7,2.47-.2,3.71-1.23,3.71-2.67,0-2.07-3.09-2.07-4.54-2.07-2.06,0-14.63.84-16.48.84-3.72,0-15.05-.84-17.71-.84h-6.41A1.85,1.85,0,0,0,112,69.25c0,1.45.61,2.06,3.08,2.47l6,1.24c4.14.83,7.43,3.71,9.49,8.46l15.25,36.67a18.71,18.71,0,0,1,1,3.5,8.91,8.91,0,0,1-.62,1.87l-1.86,3.91c-3.49,7.42-9.06,20.61-16.69,39.16-6.18,14.83-11.13,26-15,33.38l-2.87,5.57a2,2,0,0,1-1.66,1.23c-.62,0-1-.41-1.45-1.23L61.53,94.59C58.45,86.78,57.4,82.65,57.4,80c0-4.54,1.45-6.4,5.58-7.21,3.3-.83,4.94-1.86,4.94-3.3s-.82-2.07-2.47-2.07l-4.11.42H25.89c-1.86,0-2.89.83-2.89,2.27,0,1.64,1,2.46,3.91,2.88l3.71.61c2.27.42,6,3.71,8.24,7.22,2.47,4.13,6.39,12.15,12,25.34L71.22,154l28.85,70.69a52.5,52.5,0,0,1,1.85,4.94c.62,2.26,1.24,3.1,2.47,3.1a1.63,1.63,0,0,0,1.45-.62c.41-1,.62-1,1.23-2.69l41.63-95.62c.63-1.24,1.45-2.06,2.07-2.06a2.39,2.39,0,0,1,1.85,1.65l2.88,7.23C159,149.2,163.14,158.28,167,168c9.9,24.11,16.08,39.14,18.76,45.34l7.83,18.14a2.21,2.21,0,0,0,1.65.81,1.63,1.63,0,0,0,1.45-.62,11,11,0,0,0,1.44-2.88L260.81,85.32c2.06-4.74,3.21-8.55,8.24-11.33s13.58-4.06,18.43,1c2.44,2.56,2.47,7.83,2.89,15.26.21,2.47.61,44.09.61,44.09V203l-.21,9.67c-.19,6.18-1,8.66-3.29,10.31a27.15,27.15,0,0,1-8.23,3.71c-4.13.82-4.75,1.44-4.75,2.67a1.47,1.47,0,0,0,1.65,1.45l3.92-.21c5.34-.2,23.7-.6,49-.6,18.76,0,30.09.4,33.59.4h3.71c3.92,0,4.74-.83,6-6.6l2.48-8.86c1.24-4.74,2.47-10.31,2.47-12.15C377.33,201.35,376.72,200.93,375.48,200.93Z" transform="translate(-23 -28.03)"/><path class="cls-3" d="M458.94,149.43l-14.22-9.7c-19.78-13.61-28.23-24.73-28.23-37.09,0-16.69,11.55-27.82,28.64-27.82,8.25,0,14.42,1.45,19,4.13,3.91,2.47,5.15,4.52,7.22,11.53a47.9,47.9,0,0,1,1.23,5.57c.62,2.46,1.22,3.08,2.67,3.08s2.27-.82,2.27-2.46c0-2.28-1-14-1-17.53V76.06c0-5.78-.81-7.23-4.73-7.63-.84,0-2.26-.2-4.33-.41a131.09,131.09,0,0,0-19.58-1.66c-26.58,0-43.47,16.7-43.47,42.46,0,9.48,2.45,17.51,7.41,23.69,4.33,5.78,10.71,11.56,23.29,20.2l13.6,9.49c6.79,4.73,14.22,12.15,16.9,16.49,2.07,3.5,3.5,9.47,3.5,15,0,17.72-13.19,30.71-31.32,30.71-13.61,0-23.29-3.71-28.65-10.93-3.08-3.91-4.94-8-6.39-13.81-.41-2-1-2.68-2.47-2.68-1.25,0-1.86.63-1.86,2.26a48.38,48.38,0,0,0,1,8.05s1,5.15,1.24,7.21l1.45,11.55c.39,3.08.6,3.49,2.05,3.92l6,1.23a82.21,82.21,0,0,0,19,2.06c34.2,0,53.17-15.88,53.17-44.72C482.23,171.88,476.05,161,458.94,149.43Z" transform="translate(-23 -28.03)"/><path class="cls-3" d="M856.29,67.81c-3.1,0-9.48,0-18.35.21h-3.09c-4.33,0-8-.21-10.91-.42,0,0-1.86-.21-3.1-.21-2.68,0-3.51,1-3.51,2.08s1,2,2.69,2.26L827.23,73a6.81,6.81,0,0,1,6.18,7.2c0,3.51-2.06,9.28-6.6,19.58L780.46,204.66c-.43,1-1,1.44-1.46,1.44-.81,0-1.23-.63-1.85-1.86L734.29,97.69l-4.94-14.84a17.35,17.35,0,0,1-.41-3.69c0-4.75,1.63-6.4,6.79-7,2.47-.21,3.7-1.22,3.7-2.66,0-2.08-3.08-2.08-4.52-2.08-2.06,0-14.65.84-16.49.84-3.71,0-15-.84-17.72-.84h-6.4a1.86,1.86,0,0,0-1.85,1.87c0,1.44.62,2,3.1,2.47l6,1.24c4.12.81,7.43,3.7,9.48,8.44l15.25,36.67a18.64,18.64,0,0,1,1,3.52,8.72,8.72,0,0,1-.62,1.85l-1.86,3.91c-3.51,7.42-9.07,20.61-16.7,39.17-6.17,14.83-11.13,26-15,33.38l-2.9,5.56a1.9,1.9,0,0,1-1.64,1.24c-.62,0-1-.41-1.43-1.24L642,94.61c-3.1-7.84-4.13-12-4.13-14.65,0-4.52,1.45-6.39,5.56-7.2,3.3-.84,4.94-1.85,4.94-3.29s-.8-2.08-2.47-2.08l-4.11.42-81.57.42c-2.67,0-62.23-1-62.23-1-1.64,0-1.84.2-2.47,2.89l-1.65,7.2L492,86.57l-1.84,6.18a4.94,4.94,0,0,0-.41,1.64c0,.82.61,1.25,1.84,1.25.84,0,1.24-.22,1.87-1.66,3.08-6.8,7-11.34,11.12-13s9.28-2.47,20.41-2.88c5.34-.21,10.09-.21,14.22-.21,11.12,0,12,.41,12,7.2l-.43,103.45c0,17.13-.41,25.78-1.65,29.27-1,3.1-4.33,5.78-8,6.6l-7.22,1.44a20.43,20.43,0,0,0-3.7.84,1.88,1.88,0,0,0-1,1.63c0,1.24.62,2.26,1.66,2.26s3.29-.2,4.31-.2l46.58.2h4.12c1.86,0,2.68-.81,2.68-2.26,0-2.05-2.27-2.05-3.5-2.47l-4.34-.82c-9.88-1.86-13.58-5.56-13.58-13.41V87c0-1.45.19-5.57.19-5.57.21-1.24,1-1.85,2.68-2.06l4.54-.4c4.53-.42,11.54-.63,18.55-.63,13.39,0,24.83-.46,28.2,6s4.49,8.66,10.06,21.85L651.64,154l28.86,70.68c1.23,3.11,1.85,4.74,1.85,5,.62,2.26,1.24,3.1,2.48,3.1a1.6,1.6,0,0,0,1.44-.63c.4-1,.63-1,1.23-2.68l41.63-95.62c.62-1.24,1.44-2.05,2.06-2.05a2.37,2.37,0,0,1,1.86,1.63l2.88,7.23c3.5,8.65,7.63,17.72,11.55,27.4,9.88,24.12,16.06,39.17,18.76,45.34l7.83,18.14a2.17,2.17,0,0,0,1.65.82,1.61,1.61,0,0,0,1.43-.61,11.42,11.42,0,0,0,1.44-2.89L841.24,85.32c2.07-4.73,4.14-9.27,8.25-11.33a16.75,16.75,0,0,1,5.76-1.65c2.88-.21,5-1,5-2.87C860.2,68,858.56,67.81,856.29,67.81Z" transform="translate(-23 -28.03)"/><path class="cls-3" d="M915.1,226.08c-4.53-.82-8-2.06-9.88-3.5-3.29-2.69-3.92-6-4.13-17.93l-.61-29.06v-55c0-17.11.61-32.58,1.65-37.91a11.42,11.42,0,0,1,2.27-5.16c1.84-2.48,5.14-4.33,9.48-5.37,3.29-.61,4.53-1.65,4.53-3.09,0-1.22-.42-1.65-2.06-1.65-6.4.43-12.16.43-21.63.43h-7.85c-4.73,0-10.72-.43-14.84-.43-2.47,0-3.29.62-3.29,2.28,0,.81.42,1.43,1.86,1.64,0,0,4.95.82,6.58,1.23,3.72,1,6.41,5,7,10.72a82.48,82.48,0,0,1,.62,10.51l-.22,83.05c-.21,34-.21,36.48-2.47,41.23-1.65,3.5-5,6-9.07,7.21-4.12,1-4.94,1.84-4.94,3.29a2,2,0,0,0,2,2.07l2.89-.21c3.71-.21,9.28-.62,16.69-.62,10.3,0,18.35.41,23.49.62l3.5.21a2,2,0,0,0,2.07-2.07C918.82,227.31,917.59,226.5,915.1,226.08Z" transform="translate(-23 -28.03)"/><path class="cls-3" d="M1098,67.6h-34.84s-2.68-.2-3.71-.2c-2.07,0-3.5.83-3.5,2.47,0,1.23,1.43,1.86,4.33,2.26l4.32.63c7.21,1,11.14,4.74,11.35,11.74l.19,5-1.23,98.5a76.25,76.25,0,0,1-.62,9.7c-.22,1.44-.42,2-.82,2-.2,0-.62-.21-1.24-.81l-9.07-11.56c-8.65-10.91-20.6-25.54-35.64-43.89q-34.93-42-49.47-61.62l-9-11.75c-2.08-2.67-4.35-3.91-7.43-3.91H945.27a1.88,1.88,0,0,0-2.07,1.66c0,1.22,1.66,2.05,5.57,4.94,3.08,2.26,4.94,4.33,11.75,12.16,1.44,1.63,2.68,4.94,2.68,10.92,0,1-1.65,87.59-1.65,87.59-.22,11.74-.42,22.87-1,28a19.33,19.33,0,0,1-1.87,7.2,11.2,11.2,0,0,1-7.21,6.2l-4.53,1c-2.27.63-3.29,1.45-3.29,2.68,0,.82.82,1.64,2.25,1.64,2.06,0,19-.4,19-.4l22.87.82c2.28,0,3.1-.42,3.1-1.85a2.62,2.62,0,0,0-2.46-2.26l-5.58-.84c-6.79-1-10.91-7-11.12-15.66,0,0-.21-6.59-.21-8.44V114.38c0-4.73,0-8,.61-9.69a1.53,1.53,0,0,1,1.46-1.24,2.41,2.41,0,0,1,1.85,1s3.3,3.71,5.15,6l34.22,42.65,40.39,47.81,9.06,12c1,1.45,3.51,4.52,7,9.47,1.86,2.7,3.3,4.54,4.12,6,2.89,4.52,3.92,5.56,5.76,5.56s2.07-.83,2.07-5.56V165.7s1.66-64.91,1.66-67l.61-15.66c.2-4.32,1.23-6.6,3.72-7.62a94.62,94.62,0,0,1,9.26-3.1c1.45-.61,2.07-1.24,2.07-2.47C1100.45,68.44,1099.62,67.6,1098,67.6Z" transform="translate(-23 -28.03)"/><path class="cls-3" d="M1262.88,172.5s-13.41.61-19.59.61c-8,0-15.65-.4-17.93-.61s-5.78-.42-6.39-.42c-2,0-3.5,1-3.5,2.69,0,1.45,1,2.26,2.48,2.48l7.62,1c7.43,1,8.45,5.56,8.45,11.95v21c0,7.83-14.21,13.4-33.81,13.4-40.17,0-69.85-34-69.85-79.76,0-44.93,22.87-70.48,62.85-70.48,12,0,19.16,1.64,30.1,6.81a60.7,60.7,0,0,1,12.56,8.23c4.75,4.13,6.4,7.23,10.1,17.32a55,55,0,0,1,1.65,5.77c.42,2.27.82,3.3,2.68,3.3,2.27,0,2.48-.62,2.48-2.47,0-.83-.21-4.13-.41-8-.43-6.61-.63-13.63-.63-20.83,0-3.29-.41-4.12-3.3-5.56l-3.7-1.87C1232.17,70.9,1226,68.83,1216.5,67a106.93,106.93,0,0,0-20.4-1.86c-48,0-83,36.49-83,86.55,0,29.89,12.37,54.82,34.61,69.67,13.82,9.07,28.66,12.77,52.35,12.77,9.49,0,16.07-1,28.24-4.54a101.51,101.51,0,0,0,12.78-4.74l7.41-3.49c2.27-1,2.89-1.66,2.89-3.31,0-.61-.41-7.41-.41-9.67v-12c0-12.17,3.29-17.52,11.34-18.36,3.3-.39,4.53-1.24,4.53-3.28C1266.79,173.32,1265.35,172.5,1262.88,172.5Z" transform="translate(-23 -28.03)"/><rect class="cls-2" width="1864" height="217.75"/></svg>